#!OML:ASF E:\Steps\Project 1\Capture day 1\Session 2\Subject.ASF
:FULLY-SPECIFIED
:DEGREES
575
root 9.22336 19.0174 -2.86164 -154.351 0.688838 179.591
lowerback -17.9533 -1.85601 -7.94628
upperback 2.02472 -0.391454 -1.41352
thorax 12.4928 -0.616478 2.83876
lowerneck -3.74581 -2.9001 -1.8708
upperneck 16.4246 -3.87931 5.85621
head 5.71574 -1.28446 1.94658
rclavicle 1.98785e-014 7.95139e-014
rhumerus -38.7673 -10.6212 -78.4251
rradius 41.7075
rwrist -7.89935
rhand -5.45347 -53.5632
rfingers 7.12502
rthumb 20.3577 277.484
lclavicle 1.98785e-014 7.95139e-014
lhumerus -26.5545 0.210858 77.0757
lradius 32.5174
lwrist -4.33859
lhand -22.2022 -11.2422
lfingers 7.12502
lthumb 4.21352 18.6959
rfemur -70.6316 -0.99702 21.8226
rtibia 79.8124
rfoot -198.61 9.68494
rtoes -41.8229
lfemur -40.7421 -4.72766 -23.145
ltibia 31.9274
lfoot -13.427 2.57231
ltoes -21.5895
576
root 9.21506 19.0471 -2.92132 -154.576 0.608092 179.676
lowerback -17.6966 -1.92693 -7.8024
upperback 2.00004 -0.560678 -1.34138
thorax 12.3298 -0.685256 2.79253
lowerneck -3.92086 -2.87932 -1.9655
upperneck 16.8288 -3.83038 5.8315
head 5.87191 -1.24748 1.95877
rclavicle 2.78299e-015 8.74653e-015
rhumerus -39.4281 -10.6825 -78.092
rradius 41.4025
rwrist -7.61994
rhand -5.61689 -53.0143
rfingers 7.12502
rthumb 20.2006 278.016
lclavicle 2.78299e-015 8.74653e-015
lhumerus -26.4846 0.0411048 77.0713
lradius 32.4509
lwrist -4.10078
lhand -22.2073 -11.0587
lfingers 7.12502
lthumb 4.20858 18.8795
rfemur -72.2695 -0.883282 21.9863
rtibia 79.3192
rfoot -199.45 9.54956
rtoes -42.3856
lfemur -39.8958 -4.65027 -23.1891
ltibia 31.3663
lfoot -13.4553 2.80227
ltoes -27.4989
577
root 9.2079 19.0755 -2.97905 -154.7 0.391478 179.767
lowerback -17.5443 -2.00161 -7.62071
upperback 2.01787 -0.727292 -1.28502
thorax 12.2754 -0.754277 2.70675
lowerneck -3.86045 -2.85922 -1.78741
upperneck 16.8783 -3.78311 5.61731
head 5.86797 -1.22669 1.86541
rclavicle -5.1684e-015 1.19271e-014
rhumerus -39.841 -10.9297 -77.7887
rradius 40.7395
rwrist -7.46355
rhand -6.51222 -51.6744
rfingers 7.12502
rthumb 19.3399 279.267
lclavicle -5.1684e-015 1.19271e-014
lhumerus -26.1566 -0.216676 77.0749
lradius 32.3389
lwrist -3.93612
lhand -21.9704 -10.6907
lfingers 7.12502
lthumb 4.43736 19.2428
rfemur -73.8584 -0.921733 22.2104
rtibia 79.1082
rfoot -200.306 9.35204
rtoes -42.866
lfemur -39.1827 -4.83792 -23.0754
ltibia 30.7606
lfoot -13.4854 2.90018
ltoes -29.2423
578
root 9.20218 19.1014 -3.04033 -154.902 0.254436 179.804
lowerback -17.51 -2.09156 -7.56322
upperback 2.16962 -0.868603 -1.23694
thorax 12.4446 -0.830363 2.68459
lowerneck -4.05528 -2.81657 -1.81113
upperneck 16.8827 -3.74616 5.69089
head 5.90337 -1.20624 1.89264
rclavicle -9.93923e-015 -2.94201e-014
rhumerus -39.9918 -11.319 -77.4637
rradius 40.1776
rwrist -6.6357
rhand -6.27795 -52.3359
rfingers 7.12502
rthumb 19.5651 278.629
lclavicle -9.93923e-015 -2.94201e-014
lhumerus -25.8879 -0.366014 77.0435
lradius 32.4367
lwrist -3.93263
lhand -21.9087 -10.8294
lfingers 7.12502
lthumb 4.49691 19.1029
rfemur -75.2895 -0.914715 22.3428
rtibia 79.2032
rfoot -201.213 9.10689
rtoes -44.313
lfemur -38.3001 -5.10559 -22.9762
ltibia 29.9618
lfoot -13.4448 2.99615
ltoes -28.1329
579
root 9.19452 19.1248 -3.10512 -155.166 0.16314 179.86
lowerback -17.481 -2.20175 -7.48527
upperback 2.31283 -1.04889 -1.14578
thorax 12.6118 -0.925413 2.68752
lowerneck -4.36231 -2.79818 -1.83373
upperneck 17.1342 -3.71248 5.58127
head 6.03298 -1.18981 1.86206
rclavicle 6.75868e-015 4.13472e-014
rhumerus -40.242 -11.5137 -77.0943
rradius 39.6167
rwrist -6.13588
rhand -6.52397 -52.2826
rfingers 7.12502
rthumb 19.3286 278.658
lclavicle 6.75868e-015 4.13472e-014
lhumerus -25.8032 -0.427695 77.0261
lradius 32.6073
lwrist -3.87008
lhand -21.8904 -10.9474
lfingers 7.12502
lthumb 4.51461 18.9845
rfemur -76.5928 -0.824616 22.4768
rtibia 79.512
rfoot -201.985 9.16129
rtoes -46.3546
lfemur -37.3059 -5.37638 -22.8783
ltibia 29.0538
lfoot -13.3599 3.10003
ltoes -25.6434
580
root 9.18778 19.1499 -3.16913 -155.438 -0.0116591 179.858
lowerback -17.254 -2.21453 -7.50879
upperback 2.32914 -1.30357 -1.05981
thorax 12.5161 -1.13295 2.71005
lowerneck -4.17889 -2.8509 -1.94644
upperneck 17.2704 -3.76505 5.6306
head 6.04901 -1.2109 1.89641
rclavicle -7.95139e-016 3.4191e-014
rhumerus -40.8269 -11.4573 -76.7675
rradius 39.2449
rwrist -6.05995
rhand -6.9962 -51.7094
rfingers 7.12502
rthumb 18.8745 279.186
lclavicle -7.95139e-016 3.4191e-014
lhumerus -25.8064 -0.536168 77.0288
lradius 32.7007
lwrist -3.73072
lhand -21.9813 -10.9771
lfingers 7.12502
lthumb 4.42685 18.9566
rfemur -77.7314 -0.804612 22.5522
rtibia 80.2622
rfoot -203.471 -2.36887
rtoes -46.7746
lfemur -36.3307 -5.67365 -22.8333
ltibia 28.1938
lfoot -13.2645 3.255
ltoes -24.2501
581
root 9.18408 19.1769 -3.24002 -155.928 -0.215106 179.785
lowerback -16.8472 -2.34624 -7.5692
upperback 2.42046 -1.49958 -1.04838
thorax 12.4065 -1.22723 2.70888
lowerneck -3.94776 -2.83386 -2.06725
upperneck 17.3038 -3.74176 5.82137
head 6.02384 -1.18862 1.98208
rclavicle -1.43125e-014 -2.78299e-014
rhumerus -41.3203 -11.593 -76.4799
rradius 38.754
rwrist -5.64644
rhand -6.63318 -51.7418
rfingers 7.12502
rthumb 19.2236 279.188
lclavicle -1.43125e-014 -2.78299e-014
lhumerus -25.6433 -0.667428 76.9831
lradius 32.6562
lwrist -3.67271
lhand -22.0142 -10.83
lfingers 7.12502
lthumb 4.3951 19.1044
rfemur -78.4309 -0.909862 22.5297
rtibia 81.8135
rfoot -204.391 -14.3983
rtoes -44.3558
lfemur -35.095 -5.94019 -22.8999
ltibia 27.4519
lfoot -13.3194 3.42758
ltoes -26.4608
582
root 9.17823 19.1951 -3.3042 -156.184 -0.0527806 180.003
lowerback -16.7962 -2.29245 -7.32477
upperback 2.50856 -1.47611 -1.03075
thorax 12.4668 -1.20112 2.59687
lowerneck -3.58223 -2.71969 -1.80085
upperneck 16.9878 -3.57642 5.6403
head 5.84631 -1.11945 1.89229
rclavicle 6.75868e-015 -1.74931e-014
rhumerus -41.5668 -12.2444 -76.0484
rradius 38.0095
rwrist -4.67466
rhand -5.969 -52.3257
rfingers 7.12502
rthumb 19.8622 278.669
lclavicle 6.75868e-015 -1.74931e-014
lhumerus -25.467 -0.89473 76.965
lradius 32.7386
lwrist -3.62831
lhand -21.7836 -10.5422
lfingers 7.12502
lthumb 4.61776 19.3875
rfemur -79.3932 -0.528954 22.6087
rtibia 82.9382
rfoot -204.993 -26.9363
rtoes -39.839
lfemur -34.2182 -5.85683 -22.7514
ltibia 26.8532
lfoot -13.4529 3.73822
ltoes -29.1273
583
root 9.17756 19.2115 -3.36118 -156.379 -0.257108 180.228
lowerback -16.6792 -2.34968 -7.05405
upperback 2.57436 -1.61951 -0.937958
thorax 12.4814 -1.25117 2.50961
lowerneck -3.91005 -2.80777 -2.15204
upperneck 17.4437 -3.72242 6.06239
head 6.06616 -1.15702 2.07631
rclavicle -1.03368e-014 2.38542e-015
rhumerus -41.9074 -12.8871 -75.6141
rradius 37.4779
rwrist -3.90815
rhand -5.89682 -52.5585
rfingers 7.12502
rthumb 19.9315 278.444
lclavicle -1.03368e-014 2.38542e-015
lhumerus -25.3802 -1.0765 76.9703
lradius 32.9464
lwrist -3.62803
lhand -21.7156 -10.4253
lfingers 7.12502
lthumb 4.68334 19.5029
rfemur -80.2811 -0.438904 22.9521
rtibia 85.3106
rfoot -206.338 -37.8066
rtoes -41.883
lfemur -33.5425 -5.86973 -22.5103
ltibia 26.3821
lfoot -13.3333 3.92948
ltoes -31.9431
584
root 9.17912 19.2245 -3.4171 -156.395 -0.593015 180.306
lowerback -16.5892 -2.54131 -6.97097
upperback 2.52427 -1.91296 -0.816636
thorax 12.4021 -1.38257 2.52021
lowerneck -3.58361 -2.62604 -2.05861
upperneck 16.9239 -3.48067 5.99946
head 5.83249 -1.06581 2.05467
rclavicle -5.96354e-015 -3.10104e-014
rhumerus -42.45 -12.9996 -75.2708
rradius 37.222
rwrist -3.73101
rhand -5.94843 -52.5294
rfingers 7.12502
rthumb 19.8819 278.468
lclavicle -5.96354e-015 -3.10104e-014
lhumerus -25.3464 -1.10139 76.9776
lradius 33.0868
lwrist -3.74704
lhand -21.8106 -10.3593
lfingers 7.12502
lthumb 4.59167 19.5709
rfemur -81.3322 -0.57669 23.2422
rtibia 86.9161
rfoot -209.485 -48.9671
rtoes -43.5614
lfemur -33.1119 -6.06038 -22.3519
ltibia 25.9833
lfoot -13.2188 3.89578
ltoes -32.4337
